<?xml version="1.0" encoding="utf-8"?>
<!-- Generator: Adobe Illustrator 16.0.0, SVG Export Plug-In . SVG Version: 6.00 Build 0)  -->
<!DOCTYPE svg PUBLIC "-//W3C//DTD SVG 1.1//EN" "http://www.w3.org/Graphics/SVG/1.1/DTD/svg11.dtd">
<svg version="1.1" id="Layer_1" xmlns="http://www.w3.org/2000/svg" xmlns:xlink="http://www.w3.org/1999/xlink" x="0px" y="0px"
	 width="100px" height="100px" viewBox="0 0 100 100" enable-background="new 0 0 100 100" xml:space="preserve">
<g>
	<g>
		<path d="M5.836,50.803c-0.209,0-0.38,0.166-0.407,0.395l-0.961,8.781l0.961,8.586c0.027,0.229,0.198,0.396,0.407,0.396
			c0.206,0,0.373-0.163,0.406-0.394l1.094-8.588l-1.094-8.781C6.209,50.964,6.042,50.803,5.836,50.803z"/>
		<path d="M2.221,54.166c-0.203,0-0.365,0.157-0.392,0.383l-0.716,5.43l0.716,5.337c0.026,0.225,0.188,0.382,0.392,0.382
			c0.198,0,0.359-0.156,0.391-0.38l0.847-5.339l-0.847-5.433C2.58,54.322,2.419,54.166,2.221,54.166z"/>
		<path d="M9.677,49.081c-0.258,0-0.464,0.202-0.49,0.48c0,0-0.913,10.418-0.913,10.418l0.913,10.037
			c0.026,0.28,0.232,0.48,0.49,0.48c0.253,0,0.459-0.201,0.489-0.479l1.036-10.039l-1.036-10.418
			C10.136,49.283,9.93,49.081,9.677,49.081z"/>
		<path d="M13.55,48.713c-0.304,0-0.551,0.242-0.575,0.564l-0.862,10.705l0.862,10.355c0.024,0.32,0.271,0.563,0.575,0.563
			c0.299,0,0.545-0.243,0.573-0.563l0.979-10.355l-0.979-10.707C14.095,48.955,13.849,48.713,13.55,48.713z"/>
		<polygon points="18.109,70.422 18.109,70.423 18.109,70.424 		"/>
		<path d="M18.109,50.048c-0.024-0.366-0.308-0.644-0.656-0.644c-0.353,0-0.635,0.278-0.657,0.648l-0.814,9.929l0.814,10.441
			c0.022,0.368,0.305,0.647,0.657,0.647c0.349,0,0.632-0.279,0.656-0.647l0.923-10.441L18.109,50.048z"/>
		<path d="M21.389,43.098c-0.396,0-0.72,0.322-0.74,0.733c0,0-0.764,16.155-0.764,16.155l0.764,10.44
			c0.021,0.407,0.345,0.729,0.74,0.729c0.392,0,0.716-0.322,0.74-0.732v0.003l0.864-10.44L22.129,43.83
			C22.104,43.42,21.78,43.098,21.389,43.098z"/>
		<path d="M25.294,39.377c-0.443,0-0.804,0.358-0.824,0.815c0,0.002-0.715,19.85-0.715,19.85l0.716,10.375
			c0.02,0.455,0.38,0.813,0.823,0.813c0.44,0,0.804-0.358,0.823-0.816v0.006l0.809-10.378l-0.809-19.85
			C26.098,39.735,25.734,39.377,25.294,39.377z"/>
		<path d="M29.354,37.583c-0.491,0-0.89,0.396-0.907,0.9c0,0.001-0.665,21.507-0.665,21.507l0.665,10.268
			c0.018,0.5,0.416,0.895,0.907,0.895c0.488,0,0.887-0.394,0.907-0.899v0.006l0.751-10.27l-0.751-21.507
			C30.24,37.979,29.842,37.583,29.354,37.583z"/>
		<path d="M34.373,37.76c-0.017-0.552-0.452-0.985-0.989-0.985c-0.541,0-0.976,0.434-0.991,0.985l-0.616,22.23l0.617,10.205
			c0.015,0.546,0.449,0.978,0.99,0.978c0.537,0,0.973-0.432,0.989-0.982l0.694-10.199L34.373,37.76z"/>
		<polygon points="34.373,70.191 34.373,70.191 34.373,70.196 		"/>
		<path d="M37.445,37.262c-0.59,0-1.061,0.469-1.075,1.068l-0.566,21.664L36.372,70.1c0.013,0.593,0.483,1.064,1.073,1.064
			c0.586,0,1.057-0.471,1.073-1.069v0.007l0.638-10.109l-0.638-21.666C38.502,37.729,38.031,37.262,37.445,37.262z"/>
		<path d="M41.538,37.969c-0.636,0-1.146,0.507-1.158,1.153l-0.517,20.873l0.517,10.044c0.012,0.64,0.522,1.145,1.158,1.145
			c0.635,0,1.144-0.505,1.156-1.152v0.008l0.58-10.043l-0.58-20.876C42.682,38.476,42.173,37.969,41.538,37.969z"/>
		<path d="M46.348,34.133c-0.196-0.133-0.433-0.211-0.686-0.211c-0.246,0-0.475,0.075-0.668,0.201
			c-0.339,0.221-0.566,0.602-0.572,1.036l-0.004,0.234l-0.466,24.597c0,0.015,0.47,9.985,0.47,9.985
			c0,0.015,0.002,0.028,0.003,0.042c0.014,0.278,0.119,0.535,0.288,0.738c0.229,0.273,0.57,0.449,0.949,0.449
			c0.337,0,0.644-0.139,0.868-0.363c0.225-0.223,0.367-0.532,0.373-0.873l0.052-0.987l0.471-8.984l-0.522-24.84
			C46.896,34.731,46.676,34.355,46.348,34.133z"/>
		<polygon points="46.903,69.975 46.903,69.972 46.903,69.976 46.903,69.971 46.903,69.968 46.903,69.968 46.903,69.972 		"/>
		<path d="M50.442,31.778c-0.197-0.12-0.428-0.19-0.673-0.19c-0.316,0-0.607,0.114-0.836,0.302c-0.294,0.243-0.484,0.609-0.49,1.019
			l-0.003,0.136L47.9,60l0.276,4.983l0.267,4.849c0.011,0.718,0.604,1.311,1.326,1.311c0.719,0,1.313-0.593,1.323-1.321v0.011v0.001
			L51.681,60l0,0l-0.588-27.093C51.086,32.428,50.824,32.009,50.442,31.778z"/>
		<path d="M86.861,47.176c-1.647,0-3.22,0.334-4.651,0.933C81.252,37.272,72.164,28.77,61.077,28.77
			c-2.713,0-5.357,0.534-7.693,1.437c-0.907,0.352-1.147,0.712-1.156,1.414c0,0.001,0,38.168,0,38.168
			c0.009,0.736,0.579,1.308,1.298,1.38c0.031,0.003,33.336,0,33.336,0c6.642,0,12.025-5.324,12.025-11.967
			C98.887,52.56,93.503,47.176,86.861,47.176z"/>
	</g>
</g>
</svg>
